<?xml version="1.0" encoding="UTF-8"?>
<svg version="1.1" xmlns="http://www.w3.org/2000/svg" width="322" height="285">
<path d="M0 0 C14.78635428 14.0119462 25.61860186 31.96701148 28.1328125 52.41796875 C28.82621256 55.17691967 29.40266832 55.92184645 31.6875 57.625 C34.19434764 58.90830112 36.69955379 60.12401676 39.25 61.3125 C46.16215153 64.66408075 52.01474771 68.38564984 57.6875 73.625 C58.53957031 74.40875 59.39164062 75.1925 60.26953125 76 C73.20634106 88.41313085 81.11252003 103.10759816 84.6875 120.625 C84.85805908 121.24656982 85.02861816 121.86813965 85.2043457 122.50854492 C89.63132912 141.90092451 83.47466091 163.89087389 73.6875 180.625 C70.97579445 184.85576817 67.88991631 188.75667481 64.6875 192.625 C64.22214844 193.25277344 63.75679688 193.88054687 63.27734375 194.52734375 C52.42376733 208.63367396 33.03642938 219.28157962 15.6875 222.625 C14.6975 222.295 13.7075 221.965 12.6875 221.625 C12.69273682 220.39346191 12.69797363 219.16192383 12.70336914 217.89306641 C12.72143553 213.33464278 12.73293804 208.77622233 12.74243164 204.21777344 C12.7474681 202.24283313 12.75429751 200.26789657 12.76293945 198.29296875 C12.77503508 195.45832395 12.7807351 192.62372834 12.78515625 189.7890625 C12.79031754 188.90256012 12.79547882 188.01605774 12.80079651 187.10269165 C12.94152092 182.72728761 12.94152092 182.72728761 11.6875 178.625 C-40.1225 178.625 -91.9325 178.625 -145.3125 178.625 C-145.3125 193.145 -145.3125 207.665 -145.3125 222.625 C-153.93574282 226.93662141 -168.37339704 222.73081195 -177.29638672 220.02294922 C-190.93399931 215.46341684 -202.09170505 207.65491423 -212.3125 197.625 C-212.99957031 196.96242187 -213.68664062 196.29984375 -214.39453125 195.6171875 C-229.77190825 179.66353799 -236.74304635 157.30380126 -236.61083984 135.54443359 C-236.05794861 112.56819706 -226.45543206 91.04081556 -210.3125 74.625 C-194.71718351 59.92042263 -175.70558638 51.1530776 -154.3125 49.625 C-154.250625 48.573125 -154.18875 47.52125 -154.125 46.4375 C-151.61846494 26.73334937 -137.82170971 9.31707294 -123.3125 -3.375 C-119.80093791 -6.04640325 -116.17895784 -8.25653592 -112.3125 -10.375 C-111.24386719 -10.98085937 -110.17523438 -11.58671875 -109.07421875 -12.2109375 C-100.39275681 -16.87120133 -91.94691273 -19.53172971 -82.3125 -21.375 C-81.075 -21.6121875 -79.8375 -21.849375 -78.5625 -22.09375 C-50.16358726 -26.66645629 -21.73364633 -18.74862391 0 0 Z M-142.3125 56.625 C-149.18434271 70.36868542 -145.3125 87.25909257 -145.3125 102.625 C-93.1725 102.625 -41.0325 102.625 12.6875 102.625 C15.3114972 77.4827189 15.3114972 77.4827189 9.6875 54.625 C6.51519121 52.37016495 3.68068324 52.36995206 -0.14401245 52.35757446 C-1.33565002 52.34904449 -2.5272876 52.34051453 -3.7550354 52.33172607 C-5.71103165 52.33308563 -5.71103165 52.33308563 -7.70654297 52.33447266 C-9.09639853 52.32848701 -10.48625077 52.32168138 -11.87609863 52.31411743 C-15.64888937 52.29645382 -19.42158938 52.29176191 -23.19441748 52.29048586 C-25.55236218 52.2890639 -27.91028383 52.28479347 -30.26822281 52.27949142 C-38.49670119 52.26098995 -46.72511479 52.25282096 -54.95361328 52.25439453 C-62.61992543 52.25559597 -70.28595605 52.23449364 -77.95219696 52.2029072 C-84.53746834 52.1767429 -91.12264778 52.1660273 -97.70797074 52.16730535 C-101.63960106 52.16781494 -105.57098118 52.16213354 -109.50255966 52.14094925 C-113.2012044 52.12156403 -116.89936034 52.12144387 -120.59802246 52.13598251 C-122.59834157 52.13906563 -124.59866074 52.12239614 -126.59890747 52.10510254 C-135.33074529 52.04227164 -135.33074529 52.04227164 -142.3125 56.625 Z M-145.3125 116.625 C-145.3125 132.465 -145.3125 148.305 -145.3125 164.625 C-141.24492208 165.43851558 -138.04360821 165.75255915 -133.95417786 165.75871277 C-132.67124344 165.76297775 -131.38830902 165.76724274 -130.0664978 165.77163696 C-128.65216061 165.77128749 -127.23782345 165.77082598 -125.82348633 165.77026367 C-124.3284751 165.77325697 -122.83346464 165.7766599 -121.3384552 165.78044128 C-117.28502312 165.78926406 -113.23161215 165.79161856 -109.1781714 165.79225707 C-105.795575 165.79320722 -102.41298351 165.79688639 -99.03038901 165.80042917 C-91.05484339 165.80856575 -83.07930906 165.81101398 -75.10375977 165.81030273 C-66.86769614 165.80970086 -58.63169778 165.82027639 -50.39565068 165.8360464 C-43.32720881 165.84909997 -36.25878834 165.85448761 -29.1903345 165.85384732 C-24.96717099 165.85359187 -20.7440656 165.85646986 -16.52091408 165.86702538 C-12.55399526 165.87667069 -8.58719059 165.87681027 -4.62026787 165.86950874 C-3.16173766 165.86845872 -1.70320048 165.87085039 -0.24468231 165.8768692 C1.74024053 165.88453238 3.7252019 165.87877085 5.71012878 165.87223816 C6.82269137 165.87278293 7.93525396 165.87332769 9.08153057 165.87388897 C11.84825516 165.88869536 11.84825516 165.88869536 13.6875 163.625 C13.98599215 161.57166093 13.98599215 161.57166093 13.93041992 159.19116211 C13.93349655 158.27358627 13.93657318 157.35601044 13.93974304 156.41062927 C13.93255753 155.41789505 13.92537201 154.42516083 13.91796875 153.40234375 C13.91751053 152.38652725 13.91705231 151.37071075 13.9165802 150.32411194 C13.91355596 148.17464023 13.90566456 146.02517075 13.89331055 143.87573242 C13.87505624 140.57267558 13.8728008 137.26989888 13.87304688 133.96679688 C13.86813179 131.88281006 13.86230351 129.79882515 13.85546875 127.71484375 C13.85379951 126.22270607 13.85379951 126.22270607 13.85209656 124.70042419 C13.84571671 123.78600052 13.83933685 122.87157684 13.83276367 121.92944336 C13.82895187 121.12051132 13.82514008 120.31157928 13.82121277 119.47813416 C13.88949875 117.60887066 13.88949875 117.60887066 12.6875 116.625 C10.64988813 116.52821761 8.60886288 116.50313035 6.56895447 116.50474548 C5.92289877 116.50389106 5.27684307 116.50303663 4.61120993 116.50215632 C2.43080183 116.50049976 0.25046945 116.50602571 -1.92993164 116.51147461 C-3.48670958 116.51175647 -5.04348764 116.51159877 -6.6002655 116.5110321 C-10.83975204 116.51074408 -15.07921054 116.51664154 -19.31869054 116.52360606 C-23.7443142 116.52983885 -28.16993843 116.53044334 -32.5955658 116.53163147 C-40.98203978 116.53474501 -49.3685008 116.5429587 -57.75496906 116.55298096 C-67.30015349 116.5641414 -76.84533852 116.56965237 -86.39052784 116.57467639 C-106.03119409 116.5851413 -125.67184254 116.60348705 -145.3125 116.625 Z " fill="#0077FC" transform="translate(236.3125,23.375)"/>
<path d="M0 0 C1.29550781 -0.02126953 1.29550781 -0.02126953 2.6171875 -0.04296875 C5.125 0.1875 5.125 0.1875 9.125 2.1875 C9.125 9.4475 9.125 16.7075 9.125 24.1875 C32.555 24.1875 55.985 24.1875 80.125 24.1875 C80.125 35.1875 80.125 35.1875 79.125 40.1875 C27.315 40.1875 -24.495 40.1875 -77.875 40.1875 C-77.875 26.1875 -77.875 26.1875 -76.875 24.1875 C-53.775 24.1875 -30.675 24.1875 -6.875 24.1875 C-6.875 16.5975 -6.875 9.0075 -6.875 1.1875 C-4.42528376 -0.03735812 -2.73265539 0.02027192 0 0 Z " fill="#0075F2" transform="translate(168.875,244.8125)"/>
<path d="M0 0 C6.79928419 -0.0505894 13.5985201 -0.08568667 20.39794922 -0.10986328 C22.71242079 -0.11993892 25.02687959 -0.13359975 27.34130859 -0.15087891 C30.66246693 -0.17505865 33.9834574 -0.1864673 37.3046875 -0.1953125 C38.34430634 -0.20563507 39.38392517 -0.21595764 40.45504761 -0.22659302 C41.41589264 -0.22674408 42.37673767 -0.22689514 43.36669922 -0.22705078 C44.63910965 -0.23371262 44.63910965 -0.23371262 45.93722534 -0.24050903 C48 0 48 0 50 2 C50.1953125 4.3828125 50.1953125 4.3828125 50.125 7.125 C50.10695312 8.03507813 50.08890625 8.94515625 50.0703125 9.8828125 C50.04710937 10.58148438 50.02390625 11.28015625 50 12 C49.34 12 48.68 12 48 12 C47.67 12.99 47.34 13.98 47 15 C40.66458555 15.05070815 34.32922343 15.08573696 27.99365234 15.10986328 C25.83835901 15.1199211 23.68307932 15.13356899 21.52783203 15.15087891 C18.42997876 15.17513662 15.33230591 15.18648532 12.234375 15.1953125 C10.78886261 15.21079636 10.78886261 15.21079636 9.31414795 15.22659302 C8.41351624 15.22674408 7.51288452 15.22689514 6.58496094 15.22705078 C5.79442322 15.231492 5.0038855 15.23593323 4.18939209 15.24050903 C1.70471693 14.96756257 0.11304818 14.32166273 -2 13 C-3.49297212 10.01405576 -3.11755228 7.29146376 -3 4 C-2.67 3.34 -2.34 2.68 -2 2 C-1.34 2 -0.68 2 0 2 C0 1.34 0 0.68 0 0 Z " fill="#016BDB" transform="translate(114,156)"/>
<path d="M0 0 C1.36172585 -0.01902626 1.36172585 -0.01902626 2.7509613 -0.03843689 C4.21820396 -0.03403343 4.21820396 -0.03403343 5.71508789 -0.02954102 C7.22601768 -0.03740379 7.22601768 -0.03740379 8.76747131 -0.04542542 C10.89835691 -0.05185061 13.02927796 -0.05050221 15.16015625 -0.04199219 C18.4219479 -0.03348845 21.68198526 -0.06222753 24.94360352 -0.09399414 C27.01326445 -0.09560636 29.08292849 -0.09502822 31.15258789 -0.09204102 C32.6167942 -0.10889198 32.6167942 -0.10889198 34.11058044 -0.12608337 C40.82553634 -0.05693432 40.82553634 -0.05693432 44.14697266 2.21240234 C45.50024414 4.40405273 45.50024414 4.40405273 45.50024414 7.96655273 C44.50024414 11.40405273 44.50024414 11.40405273 43.05493164 13.08959961 C39.03941557 15.15568701 35.07863973 14.87183746 30.62524414 14.87280273 C29.66376465 14.88041626 28.70228516 14.88802979 27.71166992 14.89587402 C25.6809346 14.90666879 23.65014379 14.90953066 21.61938477 14.9050293 C18.51102379 14.90405611 15.40512426 14.94570264 12.29711914 14.98999023 C10.32316596 14.99519665 8.34920419 14.99788544 6.37524414 14.99780273 C5.44599121 15.014198 4.51673828 15.03059326 3.55932617 15.04748535 C-2.86435574 14.97859628 -2.86435574 14.97859628 -6.08959961 12.06225586 C-7.79074835 8.85551979 -8.04458216 6.98433983 -7.49975586 3.40405273 C-5.26261629 0.43384692 -3.64584567 0.0246706 0 0 Z " fill="#0171E8" transform="translate(118.499755859375,217.595947265625)"/>
<path d="M0 0 C0.9607695 0.00022659 1.921539 0.00045319 2.91142273 0.00068665 C4.46310905 0.02391243 4.46310905 0.02391243 6.04614258 0.04760742 C7.10730789 0.05185226 8.16847321 0.05609711 9.26179504 0.06047058 C12.65501148 0.07727911 16.04763655 0.11493599 19.44067383 0.15307617 C21.73949338 0.16812017 24.03832224 0.18180907 26.3371582 0.1940918 C31.97603225 0.22718972 37.61456079 0.27741087 43.25317383 0.34057617 C45.54574636 4.34376052 45.25618835 6.82701082 44.25317383 11.34057617 C40.84065545 14.75309455 36.47203802 14.39567891 31.85595703 14.42578125 C30.17188024 14.41085496 28.48785713 14.38859075 26.80395508 14.36010742 C25.90952194 14.34598312 25.01508881 14.33185883 24.09355164 14.31730652 C22.21172133 14.28432367 20.3299471 14.24799046 18.44824219 14.20849609 C15.56482922 14.15305993 12.68188651 14.12465748 9.7980957 14.09643555 C7.96668236 14.06099917 6.13529943 14.02394588 4.30395508 13.98510742 C3.01017693 13.97855888 3.01017693 13.97855888 1.69026184 13.97187805 C-4.23699767 13.802134 -4.23699767 13.802134 -6.7890625 11.49169922 C-8.08871706 8.57269429 -8.15007618 6.49936788 -7.74682617 3.34057617 C-5.46730429 0.25173712 -3.74457656 -0.02948485 0 0 Z " fill="#0076F1" transform="translate(118.746826171875,94.659423828125)"/>
<path d="M0 0 C1.18634757 0.00092179 2.37269514 0.00184359 3.59499264 0.00279331 C4.25329899 0.00193889 4.91160535 0.00108446 5.58986038 0.00020415 C7.81172657 -0.00145248 10.03351845 0.00407365 12.25537777 0.00952244 C13.84171198 0.0098043 15.42804632 0.0096466 17.01438046 0.00907993 C21.33444272 0.00879191 25.65447747 0.01468945 29.97453332 0.02165389 C34.48423865 0.02788658 38.99394455 0.02849116 43.50365353 0.0296793 C52.04949925 0.03279286 60.59533224 0.04100659 69.14117235 0.05102879 C78.86773184 0.06218914 88.59429192 0.06770018 98.32085621 0.07272422 C118.33476467 0.08318919 138.34865567 0.10153498 158.3625555 0.12304783 C158.3625555 14.31304783 158.3625555 28.50304783 158.3625555 43.12304783 C158.0325555 43.12304783 157.7025555 43.12304783 157.3625555 43.12304783 C157.0325555 29.92304783 156.7025555 16.72304783 156.3625555 3.12304783 C78.1525555 2.62804783 78.1525555 2.62804783 -1.6374445 2.12304783 C-1.6374445 17.63304783 -1.6374445 33.14304783 -1.6374445 49.12304783 C-1.9674445 49.12304783 -2.2974445 49.12304783 -2.6374445 49.12304783 C-3.39433173 37.39129574 -3.74438884 25.69279118 -3.7624445 13.93554783 C-3.76695621 12.68805759 -3.77146793 11.44056736 -3.77611637 10.15527439 C-3.77418278 8.99608494 -3.77224918 7.83689548 -3.770257 6.64257908 C-3.76912907 5.60206394 -3.76800114 4.56154881 -3.76683903 3.48950291 C-3.58343847 0.13534889 -3.3779629 0.15759611 0 0 Z " fill="#017BE6" transform="translate(92.63744449615479,137.87695217132568)"/>
<path d="M0 0 C0.33 0 0.66 0 1 0 C1 7.92 1 15.84 1 24 C-22.1 24 -45.2 24 -69 24 C-69 28.29 -69 32.58 -69 37 C-17.85 37 33.3 37 86 37 C86 37.66 86 38.32 86 39 C34.19 39 -17.62 39 -71 39 C-71 25 -71 25 -70 23 C-46.9 23 -23.8 23 0 23 C0 15.41 0 7.82 0 0 Z " fill="#083160" transform="translate(162,246)"/>
<path d="M0 0 C3.625 0.3125 3.625 0.3125 6.0625 1.3125 C8.18370152 4.02763795 8.13837798 6.06166293 7.93359375 9.4375 C7.625 11.3125 7.625 11.3125 6.625 13.3125 C3.35677066 14.94661467 0.19047924 14.95739957 -3.375 14.3125 C-5.4375 12.8125 -5.4375 12.8125 -6.375 10.3125 C-6.3976004 7.45354947 -5.97180407 5.15879635 -5.375 2.3125 C-3.375 0.3125 -3.375 0.3125 0 0 Z " fill="#0361BF" transform="translate(222.375,216.6875)"/>
<path d="M0 0 C8.04448938 -0.77350859 8.04448938 -0.77350859 11.625 2.125 C13 5 13 5 13.0625 8.125 C12 11 12 11 9.875 12.9375 C6.1206252 14.32498634 3.82987251 14.08392618 0 13 C-1.5 11.375 -1.5 11.375 -2 9 C-1.47916667 2.95833333 -1.47916667 2.95833333 0 0 Z " fill="#0175E8" transform="translate(218,156)"/>
<path d="M0 0 C0 0.66 0 1.32 0 2 C0.99 2.33 1.98 2.66 3 3 C3 5.64 3 8.28 3 11 C1.68 11.33 0.36 11.66 -1 12 C-1 12.66 -1 13.32 -1 14 C-2.98 14 -4.96 14 -7 14 C-7 13.34 -7 12.68 -7 12 C-7.99 12 -8.98 12 -10 12 C-10.10824843 10.3973218 -10.18570645 8.79254252 -10.25 7.1875 C-10.29640625 6.29417969 -10.3428125 5.40085937 -10.390625 4.48046875 C-10 2 -10 2 -8.1875 0.15625 C-5.16832787 -1.43959813 -3.23413978 -0.80853495 0 0 Z " fill="#0365C9" transform="translate(227,94)"/>
<path d="M0 0 C0.66 0 1.32 0 2 0 C1.93941406 0.74121094 1.87882813 1.48242188 1.81640625 2.24609375 C1.08089295 11.49093014 0.52116757 20.74095913 0 30 C-0.66 30 -1.32 30 -2 30 C-2.20430975 19.78451249 -2.2054634 10.04273512 0 0 Z " fill="#0363B9" transform="translate(2,140)"/>
<path d="M0 0 C0.33 0 0.66 0 1 0 C1.33 2.97 1.66 5.94 2 9 C4.64 9 7.28 9 10 9 C10.70074844 5.846632 11 3.27275026 11 0 C12.5625 1.125 12.5625 1.125 14 3 C14 6 14 6 13 9 C9.98485817 11.7490999 8.40780182 12.0069119 4.3125 11.9375 C1 11 1 11 -0.5 9.375 C-1.1944514 6.07635587 -0.63124929 3.28249631 0 0 Z " fill="#092A57" transform="translate(217,158)"/>
<path d="M0 0 C0.33 0 0.66 0 1 0 C1.02922646 3.37498158 1.04687468 6.74993021 1.0625 10.125 C1.07087891 11.07632813 1.07925781 12.02765625 1.08789062 13.0078125 C1.10449608 17.79018487 1.00537055 22.29771569 0 27 C-0.33 27 -0.66 27 -1 27 C-2.17806959 20.99431656 -1.76422836 15.61654155 -1.0625 9.5625 C-0.96259766 8.64017578 -0.86269531 7.71785156 -0.75976562 6.76757812 C-0.51420423 4.51075195 -0.26078192 2.2551093 0 0 Z " fill="#0359AD" transform="translate(321,148)"/>
<path d="M0 0 C0.66 0.33 1.32 0.66 2 1 C-5.11389522 9.81548975 -5.11389522 9.81548975 -10 11 C-6.79239749 7.19364503 -3.59253891 3.45436433 0 0 Z " fill="#0173D9" transform="translate(113,20)"/>
<path d="M0 0 C0.33 0.99 0.66 1.98 1 3 C-1.36944013 5.61885488 -3.83733102 7.41866551 -7 9 C-7.99 8.67 -8.98 8.34 -10 8 C-6.7 5.36 -3.4 2.72 0 0 Z " fill="#0074D8" transform="translate(36,90)"/>
<path d="M0 0 C1.12894876 0.93274109 2.25300876 1.87140122 3.375 2.8125 C4.00148437 3.33457031 4.62796875 3.85664063 5.2734375 4.39453125 C7 6 7 6 9 9 C6 9 6 9 3.8125 7.125 C2 5 2 5 2 3 C1.01 3 0.02 3 -1 3 C-0.67 2.01 -0.34 1.02 0 0 Z " fill="#0165BD" transform="translate(233,21)"/>
<path d="M0 0 C0.33 0 0.66 0 1 0 C1.0825 0.78375 1.165 1.5675 1.25 2.375 C1.72806339 5.14749104 1.72806339 5.14749104 4.0625 6.3125 C4.701875 6.539375 5.34125 6.76625 6 7 C4.02 7.33 2.04 7.66 0 8 C-0.98120464 4.94736336 -0.98120464 3.05263664 0 0 Z " fill="#036CC1" transform="translate(250,238)"/>
<path d="M0 0 C0.66 0 1.32 0 2 0 C1.67 2.97 1.34 5.94 1 9 C0.34 9 -0.32 9 -1 9 C-0.67 6.03 -0.34 3.06 0 0 Z " fill="#026BC9" transform="translate(2,140)"/>
<path d="M0 0 C3 1 3 1 4.6875 4.0625 C5.120625 5.031875 5.55375 6.00125 6 7 C5.01 7 4.02 7 3 7 C0 2.77777778 0 2.77777778 0 0 Z " fill="#026FD1" transform="translate(11,202)"/>
<path d="M0 0 C-1 3 -1 3 -2.8125 4.25 C-5.33943414 5.11637742 -6.52221994 4.88492145 -9 4 C-2.25 0 -2.25 0 0 0 Z " fill="#016DC9" transform="translate(131,10)"/>
<path d="M0 0 C0.66 0.33 1.32 0.66 2 1 C2 3.31 2 5.62 2 8 C1.01 8 0.02 8 -1 8 C-0.67 5.36 -0.34 2.72 0 0 Z " fill="#0366BC" transform="translate(162,160)"/>
<path d="M0 0 C0.66 0.99 1.32 1.98 2 3 C0.35 4.32 -1.3 5.64 -3 7 C-3.66 6.67 -4.32 6.34 -5 6 C-3.35 4.02 -1.7 2.04 0 0 Z " fill="#016CD0" transform="translate(25,99)"/>
<path d="M0 0 C3.37503669 1.1858237 5.64722731 2.27573689 8 5 C6.68 5 5.36 5 4 5 C4 4.34 4 3.68 4 3 C2.68 2.67 1.36 2.34 0 2 C0 1.34 0 0.68 0 0 Z " fill="#036ECC" transform="translate(220,13)"/>
<path d="M0 0 C4.455 0.99 4.455 0.99 9 2 C5 4 5 4 2.25 3.125 C1.5075 2.75375 0.765 2.3825 0 2 C0 1.34 0 0.68 0 0 Z " fill="#0269C2" transform="translate(199,4)"/>
</svg>
