<?xml version="1.0" encoding="UTF-8"?>
<svg version="1.1" xmlns="http://www.w3.org/2000/svg" width="731" height="283">
<path d="M0 0 C0.81726563 0.67417969 1.63453125 1.34835938 2.4765625 2.04296875 C3.31445312 2.70683594 4.15234375 3.37070312 5.015625 4.0546875 C18.55963107 15.39726843 28.19318965 31.97746741 32.4765625 49.04296875 C32.48300781 49.98269531 32.48945313 50.92242187 32.49609375 51.890625 C32.5486327 55.28655169 32.77054392 57.06837224 34.4765625 60.04296875 C38.79885488 63.23864259 43.78244345 65.35121941 48.62109375 67.640625 C54.77700789 70.57488494 59.49575838 74.37761556 64.4765625 79.04296875 C65.25 79.72617188 66.0234375 80.409375 66.8203125 81.11328125 C80.95959155 94.23569434 90.39210923 113.80100242 91.60253906 133.04589844 C92.46799031 156.50072275 86.26662867 179.76423934 70.1015625 197.35546875 C68.25927658 199.28923588 66.37808425 201.16548309 64.4765625 203.04296875 C63.661875 203.85636719 62.8471875 204.66976562 62.0078125 205.5078125 C49.86550147 217.03906567 35.05260374 224.67496286 18.4765625 227.04296875 C18.4765625 212.52296875 18.4765625 198.00296875 18.4765625 183.04296875 C-33.6634375 183.04296875 -85.8034375 183.04296875 -139.5234375 183.04296875 C-139.5234375 197.56296875 -139.5234375 212.08296875 -139.5234375 227.04296875 C-141.21442821 228.73395946 -143.2654896 228.2554918 -145.5859375 228.29296875 C-168.70838547 228.04581669 -189.47518728 218.49838412 -206.1484375 202.73046875 C-218.40244451 189.93120147 -225.94467885 174.25410863 -229.5234375 157.04296875 C-229.67425781 156.32109375 -229.82507813 155.59921875 -229.98046875 154.85546875 C-230.29606485 152.90298088 -230.43870989 151.01994642 -230.5234375 149.04296875 C-230.575 147.97046875 -230.6265625 146.89796875 -230.6796875 145.79296875 C-231.33612488 119.53547352 -221.32960984 97.41220577 -203.3984375 78.48046875 C-188.88312732 64.26672318 -168.89007477 54.98152346 -148.5234375 54.04296875 C-148.41128906 52.87121094 -148.29914063 51.69945313 -148.18359375 50.4921875 C-145.98796724 33.12191792 -134.52276611 18.06002163 -122.5234375 6.04296875 C-121.86730469 5.37523438 -121.21117188 4.7075 -120.53515625 4.01953125 C-89.01998732 -25.80853013 -33.4927279 -26.15670744 0 0 Z M-136.5234375 61.04296875 C-143.39528021 74.78665417 -139.5234375 91.67706132 -139.5234375 107.04296875 C-87.3834375 107.04296875 -35.2434375 107.04296875 18.4765625 107.04296875 C21.1005597 81.90068765 21.1005597 81.90068765 15.4765625 59.04296875 C12.30425371 56.7881337 9.46974574 56.78792081 5.64505005 56.77554321 C4.45341248 56.76701324 3.2617749 56.75848328 2.0340271 56.74969482 C0.07803085 56.75105438 0.07803085 56.75105438 -1.91748047 56.75244141 C-3.30733603 56.74645576 -4.69718827 56.73965013 -6.08703613 56.73208618 C-9.85982687 56.71442257 -13.63252688 56.70973066 -17.40535498 56.70845461 C-19.76329968 56.70703265 -22.12122133 56.70276222 -24.47916031 56.69746017 C-32.70763869 56.6789587 -40.93605229 56.67078971 -49.16455078 56.67236328 C-56.83086293 56.67356472 -64.49689355 56.65246239 -72.16313446 56.62087595 C-78.74840584 56.59471165 -85.33358528 56.58399605 -91.91890824 56.5852741 C-95.85053856 56.58578369 -99.78191868 56.58010229 -103.71349716 56.558918 C-107.4121419 56.53953278 -111.11029784 56.53941262 -114.80895996 56.55395126 C-116.80927907 56.55703438 -118.80959824 56.54036489 -120.80984497 56.52307129 C-129.54168279 56.46024039 -129.54168279 56.46024039 -136.5234375 61.04296875 Z M-139.5234375 121.04296875 C-139.5234375 136.88296875 -139.5234375 152.72296875 -139.5234375 169.04296875 C-87.3834375 169.04296875 -35.2434375 169.04296875 18.4765625 169.04296875 C18.4765625 153.53296875 18.4765625 138.02296875 18.4765625 122.04296875 C17.40818611 120.75040919 17.40818611 120.75040919 14.90158749 120.91992092 C13.74473729 120.92084271 12.5878871 120.92176451 11.39598083 120.92271423 C10.75400869 120.92185981 10.11203654 120.92100538 9.4506107 120.92012507 C7.28402196 120.91846854 5.11750943 120.92399442 2.95092773 120.92944336 C1.40400189 120.92972522 -0.14292409 120.92956752 -1.68984985 120.92900085 C-5.90247782 120.92871283 -10.11507756 120.93461026 -14.32769895 120.94157481 C-18.72529538 120.94780763 -23.12289239 120.94841209 -27.52049255 120.94960022 C-35.85384263 120.95271375 -44.18717965 120.96092743 -52.52052397 120.97094971 C-62.00525004 120.98211018 -71.48997672 120.98762113 -80.97470772 120.99264514 C-100.49095989 121.00311002 -120.00719416 121.02145577 -139.5234375 121.04296875 Z " fill="#0077FC" transform="translate(230.5234375,17.95703125)"/>
<path d="M0 0 C7.26 0 14.52 0 22 0 C22 14.52 22 29.04 22 44 C38.5 44 55 44 72 44 C72 29.48 72 14.96 72 0 C79.59 0 87.18 0 95 0 C95 37.62 95 75.24 95 114 C87.41 114 79.82 114 72 114 C72 97.83 72 81.66 72 65 C55.5 65 39 65 22 65 C22 81.17 22 97.34 22 114 C14.74 114 7.48 114 0 114 C0 76.38 0 38.76 0 0 Z " fill="#F0F4F7" transform="translate(347,157)"/>
<path d="M0 0 C1 2 1 2 0.4239502 4.29145813 C0.09390991 5.25271103 -0.23613037 6.21396393 -0.57617188 7.2043457 C-0.94878143 8.30177597 -1.32139099 9.39920624 -1.70529175 10.52989197 C-2.33070358 12.33460716 -2.33070358 12.33460716 -2.96875 14.17578125 C-3.4010952 15.44093011 -3.83273167 16.70632136 -4.26370239 17.97193909 C-5.18648663 20.67748451 -6.1137937 23.38141931 -7.04473877 26.08416748 C-8.50101901 30.31230036 -9.94772417 34.54366316 -11.39208984 38.77587891 C-11.63187498 39.47840538 -11.87166012 40.18093185 -12.11871147 40.90474701 C-12.60407274 42.32676673 -13.08941094 43.74879432 -13.5747261 45.17082977 C-14.30701476 47.31540936 -15.04028699 49.45965053 -15.77377319 51.6038208 C-20.44882772 65.27634368 -25.01959343 78.98290299 -29.56030273 92.70059204 C-30.1529086 94.49059931 -30.74605605 96.2804274 -31.33981323 98.0700531 C-31.86446591 99.6515772 -32.38782318 101.23353205 -32.90945435 102.8160553 C-33.14252289 103.51854904 -33.37559143 104.22104279 -33.61572266 104.94482422 C-33.81219391 105.53947479 -34.00866516 106.13412537 -34.21109009 106.74679565 C-35.41515531 110.18572443 -36.7206378 113.58836747 -38 117 C-47.57 117 -57.14 117 -67 117 C-69.29742673 111.25643317 -71.52095288 105.68750353 -73.48266602 99.85498047 C-73.6996666 99.21241806 -73.91666718 98.56985565 -74.14024353 97.90782166 C-74.84740541 95.81181187 -75.55064144 93.71450769 -76.25390625 91.6171875 C-76.75964975 90.11621029 -77.26567321 88.61532739 -77.7719574 87.11453247 C-79.10337864 83.1657273 -80.43161389 79.21585852 -81.75897217 75.26568604 C-83.84914323 69.04693099 -85.9438825 62.8297134 -88.03898239 56.61261749 C-88.81440151 54.31063896 -89.58880956 52.00832187 -90.3631897 49.70599365 C-92.95294509 42.01421106 -95.56806751 34.33217259 -98.22998047 26.66503906 C-98.48873805 25.91843836 -98.74749563 25.17183765 -99.01409435 24.40261269 C-100.24399801 20.85483073 -101.4784857 17.30877882 -102.72157288 13.76559448 C-103.15368576 12.52182037 -103.58579865 11.27804626 -104.03100586 9.99658203 C-104.41268417 8.90636749 -104.79436249 7.81615295 -105.18760681 6.69290161 C-106 4 -106 4 -106 1 C-97.75 1 -89.5 1 -81 1 C-80.28457031 3.4234375 -79.56914062 5.846875 -78.83203125 8.34375 C-72.67736858 29.11084915 -66.24874101 49.76672188 -59.48313904 70.34295654 C-59.22960159 71.11407776 -58.97606415 71.88519897 -58.71484375 72.6796875 C-58.47093399 73.42099915 -58.22702423 74.16231079 -57.97572327 74.92608643 C-56.22740683 80.25792582 -54.5563018 85.60855622 -53 91 C-51.10650504 88.15975756 -50.30193093 86.13610045 -49.328125 82.91015625 C-49.00030029 81.83701172 -48.67247559 80.76386719 -48.3347168 79.65820312 C-47.79778198 77.87833008 -47.79778198 77.87833008 -47.25 76.0625 C-46.45086827 73.44869796 -45.65037851 70.83535405 -44.84765625 68.22265625 C-44.62982986 67.5125943 -44.41200348 66.80253235 -44.18757629 66.07095337 C-40.80190619 55.06500225 -37.27503676 44.10318011 -33.77233887 33.13406372 C-32.89337852 30.38117641 -32.0149835 27.6281093 -31.13671875 24.875 C-30.86058746 24.01067856 -30.58445618 23.14635712 -30.29995728 22.25584412 C-28.38704733 16.25527564 -26.53445748 10.23957721 -24.73754883 4.203125 C-24 2 -24 2 -23 1 C-20.07857309 0.7604903 -17.17645982 0.57652963 -14.25 0.4375 C-13.43789063 0.39431641 -12.62578125 0.35113281 -11.7890625 0.30664062 C-7.85568259 0.1048467 -3.93994008 -0.05605606 0 0 Z " fill="#0076F7" transform="translate(420,14)"/>
<path d="M0 0 C1.40088867 -0.02416992 1.40088867 -0.02416992 2.83007812 -0.04882812 C12.95275212 -0.05585288 21.79890884 2.09831765 29.1875 9.3125 C43.20606228 24.73291851 37.28140911 53.96483226 36.75 73.25 C36.73053314 73.99366821 36.71106628 74.73733643 36.69100952 75.50354004 C36.6340759 77.61584454 36.57020491 79.72781485 36.50390625 81.83984375 C36.46724854 83.06437256 36.43059082 84.28890137 36.39282227 85.55053711 C36.1875 88.3125 36.1875 88.3125 35.1875 89.3125 C32.32482433 89.38575168 29.486781 89.40488205 26.625 89.375 C25.81869141 89.37048828 25.01238281 89.36597656 24.18164062 89.36132812 C22.18356244 89.34950518 20.18552217 89.33156914 18.1875 89.3125 C17.6925 85.8475 17.6925 85.8475 17.1875 82.3125 C14.49204741 82.3125 13.93885095 83.30150403 12 85.125 C5.24110616 91.07058296 -2.45842504 92.67175927 -11.25390625 92.5234375 C-21.24796666 91.6994997 -28.74024496 88.78102497 -35.5625 81.42578125 C-40.44088549 75.45679516 -42.39185861 69.26745409 -42.1171875 61.515625 C-41.04137889 53.7367012 -38.34404142 47.60270535 -32.08984375 42.74609375 C-23.83296454 37.54836704 -15.42081854 36.29586991 -5.78515625 35.99609375 C-4.49931641 35.95419922 -3.21347656 35.91230469 -1.88867188 35.86914062 C-0.55078375 35.829343 0.78710691 35.78963049 2.125 35.75 C3.49024562 35.70673346 4.85548018 35.66311679 6.22070312 35.61914062 C9.54287652 35.51348847 12.86511946 35.41138605 16.1875 35.3125 C16.0610147 33.7168248 15.92506461 32.12189808 15.78515625 30.52734375 C15.71047119 29.63909912 15.63578613 28.75085449 15.55883789 27.83569336 C15.0049997 24.07243389 13.79904885 22.05797444 11.1875 19.3125 C5.43447836 15.95763372 -0.48230833 15.49305742 -6.91796875 16.7109375 C-9.16175532 17.35923606 -10.87704101 17.99501461 -12.8125 19.3125 C-13.83071572 21.30732706 -13.83071572 21.30732706 -14.6875 23.5 C-15.79296875 25.625 -15.79296875 25.625 -17.8125 27.3125 C-23.66586506 28.56436723 -29.9354566 28.16533848 -35.8125 27.3125 C-37.8125 24.3125 -37.8125 24.3125 -37.4140625 22.11328125 C-33.94353521 13.27037771 -28.62787093 7.1582098 -19.96484375 3.1015625 C-13.10633888 0.58719229 -7.2930937 -0.02485717 0 0 Z M-19.375 54.625 C-21.04377392 57.74488168 -21.74148679 59.76183931 -21.8125 63.3125 C-20.052415 68.68539105 -17.90821127 72.45238716 -13.01171875 75.39453125 C-8.21913833 77.39498666 -2.51344556 77.05338437 2.4375 75.6953125 C7.92001273 73.27529712 11.75639683 69.15582535 15.1875 64.3125 C16.23726964 61.16319107 16.28881595 58.92435544 16.25 55.625 C16.24097656 54.63113281 16.23195313 53.63726562 16.22265625 52.61328125 C16.21105469 51.85402344 16.19945312 51.09476563 16.1875 50.3125 C5.37648193 48.20469145 -10.61469755 46.71936121 -19.375 54.625 Z " fill="#0076F5" transform="translate(693.8125,41.6875)"/>
<path d="M0 0 C9.92392678 9.61487716 12.49529266 22.08621678 13.27734375 35.484375 C13.2578125 38.1875 13.2578125 38.1875 12.2578125 39.1875 C10.32474752 39.28146057 8.38822412 39.30493517 6.45288086 39.30102539 C5.21166977 39.30094986 3.97045868 39.30087433 2.69163513 39.30079651 C1.3269751 39.29568911 -0.03768452 39.2904731 -1.40234375 39.28515625 C-2.79096933 39.283292 -4.17959557 39.28186813 -5.56822205 39.28086853 C-9.22939865 39.27704387 -12.8905358 39.26721403 -16.55169678 39.25616455 C-20.28511013 39.24594932 -24.01852984 39.24137067 -27.75195312 39.23632812 C-35.08204927 39.22559171 -42.41211286 39.20851591 -49.7421875 39.1875 C-49.29406732 41.3354894 -48.83340402 43.48086561 -48.3671875 45.625 C-48.11195313 46.81996094 -47.85671875 48.01492187 -47.59375 49.24609375 C-47.31273437 50.21675781 -47.03171875 51.18742187 -46.7421875 52.1875 C-46.0821875 52.5175 -45.4221875 52.8475 -44.7421875 53.1875 C-44.28392578 54.13882813 -44.28392578 54.13882813 -43.81640625 55.109375 C-42.34540505 57.95509368 -40.27911538 59.10120595 -37.42578125 60.42578125 C-30.72388465 62.32806631 -22.86418442 62.46037024 -16.3984375 59.82421875 C-13.58670485 58.32860246 -13.58670485 58.32860246 -11.8671875 55.5625 C-9.42177573 52.82939273 -7.91457235 52.48090467 -4.3125 52.234375 C1.21243274 52.13361635 6.73240945 52.11765642 12.2578125 52.1875 C10.82914468 60.89485442 5.07377365 67.80162207 -1.7421875 73.1875 C-13.36429945 79.79287298 -25.99878417 82.16312095 -39.1328125 79.5 C-50.71556616 75.9360758 -60.09473097 69.16419452 -65.9921875 58.4375 C-72.17905812 44.73038148 -72.66706519 29.3683535 -67.7421875 15.1875 C-62.06634961 2.75471224 -54.21277798 -4.14023022 -41.6796875 -9 C-26.47704861 -13.20498522 -11.96005058 -10.19791146 0 0 Z M-44.1171875 13.5 C-46.48222357 16.54168127 -47.94373049 19.37264984 -48.7421875 23.1875 C-48.4121875 23.8475 -48.0821875 24.5075 -47.7421875 25.1875 C-34.5421875 25.1875 -21.3421875 25.1875 -7.7421875 25.1875 C-10.08410488 17.14197146 -10.08410488 17.14197146 -14.7421875 11.1875 C-15.7321875 11.1875 -16.7221875 11.1875 -17.7421875 11.1875 C-17.7421875 10.5275 -17.7421875 9.8675 -17.7421875 9.1875 C-26.88628455 5.43607557 -37.19257548 5.92148999 -44.1171875 13.5 Z " fill="#0076F6" transform="translate(484.7421875,52.8125)"/>
<path d="M0 0 C10.36568666 7.56980421 15.47972267 17.25298157 17.53515625 29.7421875 C19.15215508 42.56666097 16.57062514 55.37425128 9 65.9375 C1.01759168 75.50962523 -9.24963657 80.36837697 -21.58203125 81.62890625 C-32.52289834 81.97820273 -43.4592623 80.25453232 -52.0390625 72.99609375 C-52.64492188 72.41988281 -53.25078125 71.84367187 -53.875 71.25 C-54.56335938 70.60160156 -55.25171875 69.95320313 -55.9609375 69.28515625 C-65.50566335 59.47431351 -68.14135746 48.04653271 -68.12158203 34.76733398 C-67.93754206 22.97995183 -63.64527371 13.1016333 -55.5625 4.4375 C-40.46090332 -9.63745304 -17.32408 -10.7104954 0 0 Z M-41.875 17.25 C-47.8233049 26.51408296 -47.76207894 38.03194895 -45.65625 48.51953125 C-44.03024385 54.20242275 -41.55182194 58.59598561 -36.4375 61.75 C-29.95654782 64.4924143 -22.04690409 64.54517771 -15.37109375 62.47265625 C-9.61087553 59.40126855 -7.04857185 54.22032612 -4.875 48.25 C-2.57451675 39.1506363 -2.88746699 28.8119105 -6.875 20.25 C-9.86099863 15.32914868 -13.27937087 12.37480283 -18.8046875 10.68359375 C-27.23410638 8.91818715 -35.82609913 10.86504908 -41.875 17.25 Z " fill="#F1F6F8" transform="translate(521.875,190.75)"/>
<path d="M0 0 C6.71183919 5.0338794 12.12044142 11.60835953 14.390625 19.79296875 C14.41410555 21.45947001 14.41676018 23.12650701 14.390625 24.79296875 C10.97228267 24.79923601 7.55815195 24.7396338 4.140625 24.66796875 C3.17253906 24.67054687 2.20445312 24.673125 1.20703125 24.67578125 C-1.52376494 24.60044894 -3.96011803 24.4658004 -6.609375 23.79296875 C-9.15234375 20.8515625 -9.15234375 20.8515625 -10.609375 17.79296875 C-15.5082008 13.48794002 -20.23508334 13.43979277 -26.53125 13.5234375 C-31.82631839 13.98709197 -35.55512664 15.51280561 -39.13671875 19.48828125 C-44.79563851 27.59119823 -45.57913467 37.69445686 -43.984375 47.23046875 C-42.4632049 53.49726108 -39.05769021 58.1430172 -33.734375 61.73046875 C-27.0824796 63.99211319 -21.14689209 64.56195843 -14.609375 61.79296875 C-11.23907477 59.60823873 -8.84923799 57.15276323 -6.609375 53.79296875 C-4.45458984 53.45239258 -4.45458984 53.45239258 -1.8203125 53.5 C-0.87929688 53.50966797 0.06171875 53.51933594 1.03125 53.52929688 C2.01609375 53.55443359 3.0009375 53.57957031 4.015625 53.60546875 C5.50449219 53.62577148 5.50449219 53.62577148 7.0234375 53.64648438 C9.47970572 53.68191132 11.93489785 53.73130679 14.390625 53.79296875 C13.9550987 55.37475635 13.50899466 56.95363338 13.05859375 58.53125 C12.81133545 59.41079346 12.56407715 60.29033691 12.30932617 61.1965332 C9.40651953 69.4004526 2.11367804 76.23657501 -5.40234375 80.3046875 C-16.07435852 85.12297101 -26.29917793 85.9708019 -37.609375 82.79296875 C-49.39091777 78.04026863 -57.71739222 71.81248441 -62.83984375 59.94140625 C-67.64730509 47.06365783 -69.06572532 31.75433623 -63.609375 18.79296875 C-61.81591027 15.30148979 -59.81540439 12.03712962 -57.609375 8.79296875 C-57.01125 7.88546875 -56.413125 6.97796875 -55.796875 6.04296875 C-40.67538659 -9.51056218 -18.02934734 -11.48095232 0 0 Z " fill="#0076F7" transform="translate(572.609375,49.20703125)"/>
<path d="M0 0 C4.15680557 2.92515947 7.21075486 6.03057952 9.546875 10.609375 C9.92358277 12.93609948 10.26234379 15.26958921 10.546875 17.609375 C7.63032349 17.91243231 4.71843649 18.17766472 1.796875 18.421875 C0.971875 18.51146484 0.146875 18.60105469 -0.703125 18.69335938 C-3.04915027 18.87309518 -5.12690163 18.97258242 -7.453125 18.609375 C-9.8984375 16.203125 -9.8984375 16.203125 -11.453125 13.609375 C-16.42401199 10.53912127 -23.03643528 10.95066185 -28.62109375 12.02734375 C-31.805171 12.80459155 -31.805171 12.80459155 -34.453125 14.609375 C-34.35277974 20.06523977 -34.35277974 20.06523977 -31.7980957 24.64331055 C-28.94952347 27.03160333 -26.92730473 27.48677595 -23.2890625 28.171875 C-22.08378906 28.41164062 -20.87851562 28.65140625 -19.63671875 28.8984375 C-18.37988281 29.13304687 -17.12304688 29.36765625 -15.828125 29.609375 C6.43662807 33.84363316 6.43662807 33.84363316 11.546875 39.421875 C15.99909177 46.51759548 16.83999622 54.72971446 15.046875 62.8828125 C12.47279682 70.51729438 8.00504243 74.71390323 1.12109375 78.53125 C-6.46151688 81.7069716 -13.64023385 81.97463816 -21.765625 81.984375 C-23.36180664 82.02111328 -23.36180664 82.02111328 -24.99023438 82.05859375 C-34.90236867 82.09487978 -45.15708622 79.79111553 -52.453125 72.609375 C-56.44142976 67.6638771 -58.23830164 62.79393031 -59.453125 56.609375 C-53.91934606 56.38900327 -48.51103434 56.58066453 -43.015625 57.296875 C-42.02691406 57.42449219 -41.03820312 57.55210937 -40.01953125 57.68359375 C-36.64167014 58.90209159 -36.1112993 60.51033699 -34.453125 63.609375 C-29.61340485 67.59301258 -24.16446839 68.16964413 -18.078125 67.94140625 C-13.43477465 67.35407771 -9.81806587 65.97431587 -6.453125 62.609375 C-6.13788881 58.35368644 -6.06974918 55.2066441 -8.453125 51.609375 C-14.71118409 47.90089554 -22.46085821 46.94411343 -29.515625 45.609375 C-46.63404035 42.35798254 -46.63404035 42.35798254 -51.953125 37.171875 C-56.06722311 30.14362407 -56.27638321 23.63176349 -55.453125 15.609375 C-53.5640724 8.82345789 -49.82835426 4.0981531 -44.09375 0.08203125 C-30.33136532 -7.59314482 -13.77858753 -7.81079165 0 0 Z " fill="#F0F4F6" transform="translate(603.453125,190.390625)"/>
<path d="M0 0 C6.27 0 12.54 0 19 0 C19.65597713 7.70773129 20.11542549 15.266492 20 23 C26.27 23 32.54 23 39 23 C39 28.28 39 33.56 39 39 C32.73 39 26.46 39 20 39 C20.04406554 45.63908174 20.11380768 52.27720453 20.20751953 58.91577148 C20.2357717 61.17480849 20.25696499 63.43394514 20.27099609 65.69311523 C20.29236652 68.93785776 20.33898732 72.18139692 20.390625 75.42578125 C20.39185364 76.43836502 20.39308228 77.45094879 20.39434814 78.49421692 C20.41406677 79.43496567 20.4337854 80.37571442 20.45410156 81.3449707 C20.46298401 82.17325882 20.47186646 83.00154694 20.48101807 83.85493469 C20.83007856 86.17148742 20.83007856 86.17148742 22.91204834 87.74821472 C26.51204163 89.90651115 29.60709602 90.12342506 33.75 90.0625 C35.85375 90.0315625 35.85375 90.0315625 38 90 C38 95.28 38 100.56 38 106 C28.0846072 109.05089009 17.58271378 109.41003783 8 105 C2.76474989 101.74031597 -0.30326159 98.00242835 -2 92 C-2.40176419 87.90329955 -2.3496688 83.83561347 -2.29296875 79.72265625 C-2.28872391 78.5561705 -2.28447906 77.38968475 -2.28010559 76.18785095 C-2.26337522 72.47916126 -2.22573221 68.77102418 -2.1875 65.0625 C-2.17244593 62.5410235 -2.15875879 60.01953844 -2.14648438 57.49804688 C-2.11348997 51.33181983 -2.06174553 45.16600347 -2 39 C-5.63 39 -9.26 39 -13 39 C-13 33.72 -13 28.44 -13 23 C-9.04 23 -5.08 23 -1 23 C-1.01160156 21.50726563 -1.02320313 20.01453125 -1.03515625 18.4765625 C-1.04453375 16.52604291 -1.05363399 14.57552198 -1.0625 12.625 C-1.07087891 11.64015625 -1.07925781 10.6553125 -1.08789062 9.640625 C-1.09111328 8.69960937 -1.09433594 7.75859375 -1.09765625 6.7890625 C-1.10289307 5.91975098 -1.10812988 5.05043945 -1.11352539 4.15478516 C-1 2 -1 2 0 0 Z " fill="#F1F6F8" transform="translate(640,164)"/>
<path d="M0 0 C0 8.25 0 16.5 0 25 C23.43 25 46.86 25 71 25 C71 29.62 71 34.24 71 39 C19.19 39 -32.62 39 -86 39 C-86 34.38 -86 29.76 -86 25 C-62.24 25 -38.48 25 -14 25 C-14 17.08 -14 9.16 -14 1 C-11.875625 0.835 -9.75125 0.67 -7.5625 0.5 C-5.77005859 0.36078125 -5.77005859 0.36078125 -3.94140625 0.21875 C-1 0 -1 0 0 0 Z " fill="#007AFE" transform="translate(177,244)"/>
<path d="M0 0 C0 6.6 0 13.2 0 20 C-2.454375 20.37125 -4.90875 20.7425 -7.4375 21.125 C-14.20418536 22.29493132 -19.99250877 24.00472216 -25 29 C-27.00483332 32.24840206 -27.26767358 34.80784491 -27.31884766 38.59472656 C-27.33871735 39.71558655 -27.35858704 40.83644653 -27.37905884 41.99127197 C-27.39638565 43.79770172 -27.39638565 43.79770172 -27.4140625 45.640625 C-27.43342865 46.87794373 -27.4527948 48.11526245 -27.4727478 49.39007568 C-27.52237989 52.67138571 -27.56366067 55.95266112 -27.60089111 59.23413086 C-27.64097656 62.58588276 -27.69221225 65.93744345 -27.7421875 69.2890625 C-27.83824506 75.85927537 -27.9222768 82.42954569 -28 89 C-34.93 89 -41.86 89 -49 89 C-49 60.29 -49 31.58 -49 2 C-42.73 2 -36.46 2 -30 2 C-29.67 5.3 -29.34 8.6 -29 12 C-28.01 10.9275 -27.02 9.855 -26 8.75 C-18.94236017 1.73487608 -9.87310076 -1.97462015 0 0 Z " fill="#0077F7" transform="translate(648,42)"/>
<path d="M0 0 C1.39671181 -0.01429802 1.39671181 -0.01429802 2.82164001 -0.02888489 C4.33414085 -0.02751778 4.33414085 -0.02751778 5.87719727 -0.02612305 C6.91046646 -0.03040817 7.94373566 -0.0346933 9.00831604 -0.03910828 C11.19645453 -0.04485863 13.38461214 -0.04534667 15.57275391 -0.04101562 C18.9265191 -0.03785788 22.27940076 -0.06129889 25.63305664 -0.08666992 C27.7561024 -0.088943 29.87915054 -0.08964637 32.00219727 -0.08862305 C33.00850693 -0.09783279 34.01481659 -0.10704254 35.05162048 -0.11653137 C35.98591385 -0.11030258 36.92020721 -0.10407379 37.8828125 -0.09765625 C38.70506821 -0.09828568 39.52732391 -0.0989151 40.37449646 -0.0995636 C43.02804531 0.36628954 43.90453854 1.13920545 45.50610352 3.2746582 C46.00610352 6.1496582 46.00610352 6.1496582 45.50610352 9.2746582 C43.49606359 12.03779748 41.89918302 13.96959445 38.45822144 14.72311401 C35.9484173 14.88695319 33.485516 14.88904304 30.97094727 14.83325195 C30.05527481 14.83092056 29.13960236 14.82858917 28.19618225 14.82618713 C26.26545867 14.81646609 24.33476293 14.79471679 22.40429688 14.76171875 C19.45017247 14.71226816 16.49771407 14.70023392 13.54321289 14.69458008 C11.66493998 14.68049476 9.7866815 14.66429059 7.90844727 14.64575195 C7.02607895 14.64038925 6.14371063 14.63502655 5.23460388 14.62950134 C3.99795738 14.60552025 3.99795738 14.60552025 2.73632812 14.58105469 C2.01416611 14.57041489 1.29200409 14.55977509 0.54795837 14.54881287 C-1.83612078 14.22870862 -3.44988738 13.53173742 -5.49389648 12.2746582 C-6.60835146 10.04574825 -6.65869934 8.74410714 -6.68139648 6.2746582 C-6.69557617 5.5734082 -6.70975586 4.8721582 -6.72436523 4.1496582 C-6.21328666 -0.00826916 -3.52063881 0.0197465 0 0 Z " fill="#0074EF" transform="translate(118.493896484375,155.725341796875)"/>
<path d="M0 0 C0.90789276 -0.0127597 1.81578552 -0.02551941 2.75119019 -0.03866577 C4.22617477 -0.04200424 4.22617477 -0.04200424 5.73095703 -0.04541016 C6.73965851 -0.05206696 7.74835999 -0.05872375 8.78762817 -0.06558228 C10.92448092 -0.0757207 13.06136541 -0.08039893 15.19824219 -0.08007812 C18.46879312 -0.08444598 21.73798929 -0.12073903 25.00830078 -0.15869141 C27.08251491 -0.16456033 29.15673546 -0.16852922 31.23095703 -0.17041016 C32.21023163 -0.18478119 33.18950623 -0.19915222 34.19845581 -0.21395874 C40.9500301 -0.16851538 40.9500301 -0.16851538 44.27050781 2.12792969 C45.61376953 4.29052734 45.61376953 4.29052734 45.48876953 7.35302734 C44.61376953 10.29052734 44.61376953 10.29052734 42.61376953 13.29052734 C37.28987706 14.28494697 32.01703819 14.44968741 26.60595703 14.45849609 C25.87684113 14.46182449 25.14772522 14.46515289 24.39651489 14.46858215 C22.86884179 14.47360463 21.34115791 14.47599194 19.81347656 14.47583008 C17.48760994 14.47802844 15.16220957 14.49626576 12.83642578 14.51513672 C11.3429378 14.51806937 9.8494476 14.52005502 8.35595703 14.52099609 C7.66831268 14.52818161 6.98066833 14.53536713 6.27218628 14.54277039 C2.01892132 14.52277481 -1.48760041 14.02217066 -5.38623047 12.29052734 C-7.38623047 9.29052734 -7.38623047 9.29052734 -7.13623047 5.72802734 C-6.0593034 0.7921116 -4.77234211 0.04543944 0 0 Z " fill="#0073EC" transform="translate(118.38623046875,216.70947265625)"/>
<path d="M0 0 C0.84827362 0.00444122 1.69654724 0.00888245 2.57052612 0.01345825 C3.53137115 0.01360931 4.49221619 0.01376038 5.48217773 0.01391602 C6.52179657 0.02423859 7.56141541 0.03456116 8.63253784 0.04519653 C9.6951181 0.04802643 10.75769836 0.05085632 11.85247803 0.05377197 C15.25584033 0.06499264 18.6589422 0.09010066 22.06222534 0.11550903 C24.36560697 0.12553639 26.6689927 0.13466266 28.97238159 0.14285278 C34.6274188 0.1649381 40.28230347 0.19843415 45.93722534 0.24050903 C48.22979788 4.24369339 47.94023986 6.72694368 46.93722534 11.24050903 C44.48923667 13.68849771 43.80734317 13.50333378 40.44332886 13.54690552 C39.04661705 13.57088661 39.04661705 13.57088661 37.62168884 13.59535217 C36.61335495 13.60071487 35.60502106 13.60607758 34.56613159 13.61160278 C33.0162278 13.62514549 33.0162278 13.62514549 31.43501282 13.63896179 C29.24689645 13.65348722 27.05873642 13.6623567 24.87057495 13.66604614 C21.5163998 13.67794986 18.16405917 13.7271207 14.81027222 13.77761841 C12.68723435 13.78708119 10.56418515 13.79431692 8.44113159 13.79910278 C6.9316671 13.82840126 6.9316671 13.82840126 5.39170837 13.85829163 C2.81009961 13.84149785 0.4607796 13.78439988 -2.06277466 13.24050903 C-4.23098755 10.90481567 -4.23098755 10.90481567 -5.06277466 8.24050903 C-4.60965426 0.53746224 -4.60965426 0.53746224 0 0 Z " fill="#0076F3" transform="translate(116.06277465820313,93.75949096679688)"/>
<path d="M0 0 C1.18634757 0.00092179 2.37269514 0.00184359 3.59499264 0.00279331 C4.25329899 0.00193889 4.91160535 0.00108446 5.58986038 0.00020415 C7.81172657 -0.00145248 10.03351845 0.00407365 12.25537777 0.00952244 C13.84171198 0.0098043 15.42804632 0.0096466 17.01438046 0.00907993 C21.33444272 0.00879191 25.65447747 0.01468945 29.97453332 0.02165389 C34.48423865 0.02788658 38.99394455 0.02849116 43.50365353 0.0296793 C52.04949925 0.03279286 60.59533224 0.04100659 69.14117235 0.05102879 C78.86773184 0.06218914 88.59429192 0.06770018 98.32085621 0.07272422 C118.33476467 0.08318919 138.34865567 0.10153498 158.3625555 0.12304783 C158.3625555 16.95304783 158.3625555 33.78304783 158.3625555 51.12304783 C105.5625555 51.12304783 52.7625555 51.12304783 -1.6374445 51.12304783 C-1.6374445 50.79304783 -1.6374445 50.46304783 -1.6374445 50.12304783 C50.5025555 50.12304783 102.6425555 50.12304783 156.3625555 50.12304783 C156.0325555 34.61304783 155.7025555 19.10304783 155.3625555 3.12304783 C77.6475555 2.62804783 77.6475555 2.62804783 -1.6374445 2.12304783 C-1.6374445 17.63304783 -1.6374445 33.14304783 -1.6374445 49.12304783 C-1.9674445 49.12304783 -2.2974445 49.12304783 -2.6374445 49.12304783 C-3.39433173 37.39129574 -3.74438884 25.69279118 -3.7624445 13.93554783 C-3.76695621 12.68805759 -3.77146793 11.44056736 -3.77611637 10.15527439 C-3.77418278 8.99608494 -3.77224918 7.83689548 -3.770257 6.64257908 C-3.76912907 5.60206394 -3.76800114 4.56154881 -3.76683903 3.48950291 C-3.58343847 0.13534889 -3.3779629 0.15759611 0 0 Z " fill="#0365C1" transform="translate(92.63744449615479,136.87695217132568)"/>
<path d="M0 0 C0.66 0 1.32 0 2 0 C2 3.96 2 7.92 2 12 C78.725 12.495 78.725 12.495 157 13 C157 13.33 157 13.66 157 14 C105.19 14 53.38 14 0 14 C0 9.38 0 4.76 0 0 Z " fill="#0075E8" transform="translate(91,269)"/>
<path d="M0 0 C2 3 2 3 2 5 C-4.27 5 -10.54 5 -17 5 C-17 20.84 -17 36.68 -17 53 C-17.66 52.67 -18.32 52.34 -19 52 C-19.0252689 45.18238106 -19.04283244 38.36477411 -19.05493164 31.54711914 C-19.05997333 29.22582549 -19.06680651 26.90453503 -19.07543945 24.58325195 C-19.08751225 21.25471205 -19.09322979 17.92621398 -19.09765625 14.59765625 C-19.10281754 13.55287613 -19.10797882 12.50809601 -19.11329651 11.43165588 C-19.11337204 10.47073532 -19.11344757 9.50981476 -19.11352539 8.51977539 C-19.115746 7.66928116 -19.11796661 6.81878693 -19.12025452 5.94252014 C-19 4 -19 4 -18 3 C-16.65732587 2.91368126 -15.31025678 2.89293527 -13.96484375 2.90234375 C-13.15595703 2.90556641 -12.34707031 2.90878906 -11.51367188 2.91210938 C-10.66353516 2.92048828 -9.81339844 2.92886719 -8.9375 2.9375 C-8.08349609 2.94201172 -7.22949219 2.94652344 -6.34960938 2.95117188 C-4.23304337 2.96299627 -2.11651315 2.98093231 0 3 C0 2.01 0 1.02 0 0 Z " fill="#D9DBDC" transform="translate(677,198)"/>
<path d="M0 0 C3.94747752 -0.51171005 6.1196436 -0.60947751 9.4375 1.6875 C11.30408821 4.45005055 11.58649994 5.73235745 11 9 C9.43878564 11.30073694 8.2338395 11.91384861 5.625 12.875 C3 13 3 13 0.1875 12 C-2 10 -2 10 -2.4375 6.5 C-2 3 -2 3 0 0 Z " fill="#0076EC" transform="translate(219,217)"/>
<path d="M0 0 C6.38603223 0.4819647 6.38603223 0.4819647 9 2.6875 C10.37236288 5.86108915 9.99557514 7.72882454 9 11 C5.53076119 13.31282587 4.07794425 13.42478586 0 13 C-1.875 11.875 -1.875 11.875 -3 10 C-3.45185216 6.46049143 -3.42109443 4.66673285 -1.5 1.625 C-1.005 1.08875 -0.51 0.5525 0 0 Z " fill="#0075E9" transform="translate(220,93)"/>
<path d="M0 0 C2 1.75 2 1.75 3 4 C2.8624874 6.81900839 2.35530428 8.45769347 0.8125 10.8125 C-1.88924432 12.58260835 -3.84673574 12.39415803 -7 12 C-8.875 10.9375 -8.875 10.9375 -10 9 C-10.36841966 5.56141649 -10.58367385 3.09868019 -8.9375 0 C-5.73276125 -1.65405871 -3.38694881 -0.90721843 0 0 Z " fill="#0075E9" transform="translate(227,156)"/>
<path d="M0 0 C0.33 0 0.66 0 1 0 C1 16.17 1 32.34 1 49 C-6.26 49 -13.52 49 -21 49 C-21 48.67 -21 48.34 -21 48 C-19.19402344 47.90912109 -19.19402344 47.90912109 -17.3515625 47.81640625 C-15.77602923 47.73200268 -14.20050904 47.64735459 -12.625 47.5625 C-11.8309375 47.52318359 -11.036875 47.48386719 -10.21875 47.44335938 C-5.97398779 47.31106596 -5.97398779 47.31106596 -2 46 C-2 37.75 -2 29.5 -2 21 C-1.67 21 -1.34 21 -1 21 C-0.67 14.07 -0.34 7.14 0 0 Z " fill="#DADEE1" transform="translate(368,222)"/>
<path d="M0 0 C0.33 0 0.66 0 1 0 C1.02465746 4.1117256 1.04283959 8.22342278 1.05493164 12.33520508 C1.0599708 13.73495228 1.06680216 15.1346942 1.07543945 16.53442383 C1.0875232 18.54245777 1.09269807 20.55052957 1.09765625 22.55859375 C1.10551147 24.37315063 1.10551147 24.37315063 1.11352539 26.22436523 C1 29 1 29 0 30 C-6.67564218 30.36315493 -13.42429886 30.24069833 -20 29 C-20.33 28.34 -20.66 27.68 -21 27 C-14.4 27.33 -7.8 27.66 -1 28 C-1.01160156 26.48148438 -1.02320312 24.96296875 -1.03515625 23.3984375 C-1.04453855 21.39062623 -1.05363828 19.38281363 -1.0625 17.375 C-1.07087891 16.37597656 -1.07925781 15.37695312 -1.08789062 14.34765625 C-1.1041087 9.44979725 -1.04318537 4.81343801 0 0 Z " fill="#017CE4" transform="translate(90,216)"/>
<path d="M0 0 C7.26 0 14.52 0 22 0 C22 14.52 22 29.04 22 44 C21.67 44 21.34 44 21 44 C20.505 32.615 20.505 32.615 20 21 C19.67 21 19.34 21 19 21 C19 15.06 19 9.12 19 3 C15.70039859 1.3501993 12.00872116 1.61741639 8.375 1.4375 C7.57320313 1.39431641 6.77140625 1.35113281 5.9453125 1.30664062 C3.9637489 1.20048543 1.98189729 1.09973145 0 1 C0 0.67 0 0.34 0 0 Z " fill="#D5DADC" transform="translate(347,157)"/>
<path d="M0 0 C0.33 0 0.66 0 1 0 C1.22527296 3.45745022 1.42733544 6.91587025 1.625 10.375 C1.68945312 11.35984375 1.75390625 12.3446875 1.8203125 13.359375 C1.871875 14.30039063 1.9234375 15.24140625 1.9765625 16.2109375 C2.02893066 17.08024902 2.08129883 17.94956055 2.13525391 18.84521484 C2 21 2 21 0 23 C-2.3828125 23.1953125 -2.3828125 23.1953125 -5.125 23.125 C-6.49011719 23.09792969 -6.49011719 23.09792969 -7.8828125 23.0703125 C-8.58148437 23.04710937 -9.28015625 23.02390625 -10 23 C-9.97679687 23.84304687 -9.95359375 24.68609375 -9.9296875 25.5546875 C-9.91164063 26.65039062 -9.89359375 27.74609375 -9.875 28.875 C-9.85179687 29.96554688 -9.82859375 31.05609375 -9.8046875 32.1796875 C-10 35 -10 35 -12 37 C-12 31.72 -12 26.44 -12 21 C-8.04 21 -4.08 21 0 21 C0 14.07 0 7.14 0 0 Z " fill="#CBCDCF" transform="translate(639,166)"/>
<path d="M0 0 C0.66 0 1.32 0 2 0 C4.2018931 4.67902284 5 6.62516458 5 12 C-1.93 11.67 -8.86 11.34 -16 11 C-16 10.34 -16 9.68 -16 9 C-10.06 9 -4.12 9 2 9 C1.34 6.03 0.68 3.06 0 0 Z " fill="#017EE8" transform="translate(582,62)"/>
<path d="M0 0 C0.66 0 1.32 0 2 0 C1.5020163 3.73487777 1.12508244 5.81237635 -1 9 C-5.62162537 10.06652893 -9.38311132 10.01346337 -14 9 C-14 8.67 -14 8.34 -14 8 C-12.84371094 7.92652344 -12.84371094 7.92652344 -11.6640625 7.8515625 C-10.66117188 7.77679688 -9.65828125 7.70203125 -8.625 7.625 C-7.62726563 7.55539063 -6.62953125 7.48578125 -5.6015625 7.4140625 C-2.84491121 7.23636036 -2.84491121 7.23636036 -1 5 C-0.35232207 2.42938689 -0.35232207 2.42938689 0 0 Z " fill="#0272CC" transform="translate(162,221)"/>
<path d="M0 0 C0.33 0 0.66 0 1 0 C1.22226864 1.76913824 1.42733873 3.54044371 1.625 5.3125 C1.74101563 6.29863281 1.85703125 7.28476563 1.9765625 8.30078125 C2 11 2 11 0 14 C-1.10424872 9.58300512 -1.15088074 5.52642225 -1 1 C-0.67 0.67 -0.34 0.34 0 0 Z " fill="#0265B8" transform="translate(653,100)"/>
<path d="M0 0 C0.66 0.33 1.32 0.66 2 1 C-3.96583144 8.66742597 -3.96583144 8.66742597 -9 10 C-8.06409496 8.8944811 -7.12620142 7.79064547 -6.1875 6.6875 C-5.66542969 6.07261719 -5.14335938 5.45773438 -4.60546875 4.82421875 C-3.12827531 3.14575321 -1.59960869 1.56117966 0 0 Z " fill="#0077E0" transform="translate(112,20)"/>
<path d="M0 0 C6.93 0.495 6.93 0.495 14 1 C14 1.33 14 1.66 14 2 C12.3603125 2.2165625 12.3603125 2.2165625 10.6875 2.4375 C7.06877013 2.88288104 7.06877013 2.88288104 4 4 C1.8125 3.0625 1.8125 3.0625 0 2 C0 1.34 0 0.68 0 0 Z " fill="#B4B6BA" transform="translate(487,253)"/>
<path d="M0 0 C0.66 0 1.32 0 2 0 C5.42857143 7.28571429 5.42857143 7.28571429 5 12 C2.43470546 10.71735273 2.33500137 9.77227651 1.375 7.125 C1.11460937 6.42632812 0.85421875 5.72765625 0.5859375 5.0078125 C0 3 0 3 0 0 Z " fill="#0273D0" transform="translate(582,62)"/>
<path d="M0 0 C1.90318884 2.85478326 2.4619099 4.41941308 3.125 7.6875 C3.29257812 8.49574219 3.46015625 9.30398437 3.6328125 10.13671875 C3.75398438 10.75160156 3.87515625 11.36648437 4 12 C3.34 12 2.68 12 2 12 C0.40861915 7.82262526 -0.21278058 4.46839215 0 0 Z " fill="#016FD2" transform="translate(341,26)"/>
<path d="M0 0 C2.61885488 2.36944013 4.41866551 4.83733102 6 8 C5.67 8.99 5.34 9.98 5 11 C4.15841464 9.73461631 3.32700252 8.46246221 2.5 7.1875 C1.80390625 6.12595703 1.80390625 6.12595703 1.09375 5.04296875 C0 3 0 3 0 0 Z " fill="#E1E2E3" transform="translate(458,246)"/>
<path d="M0 0 C0.33 0.99 0.66 1.98 1 3 C-1.39509338 5.89932357 -3.31245243 6.50168276 -7 7 C-4.78071806 4.09197539 -3.07030857 2.04687238 0 0 Z " fill="#0075DC" transform="translate(36,89)"/>
<path d="M0 0 C0.33 0 0.66 0 1 0 C1.268125 1.11375 1.53625 2.2275 1.8125 3.375 C2.65809019 7.21840951 2.65809019 7.21840951 6 9 C3 10 3 10 0 9 C-1.125 3.375 -1.125 3.375 0 0 Z " fill="#026FD1" transform="translate(263,72)"/>
<path d="M0 0 C0.33 0.99 0.66 1.98 1 3 C-0.65 4.32 -2.3 5.64 -4 7 C-4.66 6.34 -5.32 5.68 -6 5 C-4.02 3.35 -2.04 1.7 0 0 Z " fill="#0070DB" transform="translate(431,50)"/>
<path d="M0 0 C6.625 -0.25 6.625 -0.25 10 2 C10 2.66 10 3.32 10 4 C6.7 3.01 3.4 2.02 0 1 C0 0.67 0 0.34 0 0 Z " fill="#0274D6" transform="translate(219,217)"/>
<path d="M0 0 C2.31 1.98 4.62 3.96 7 6 C6.34 6.66 5.68 7.32 5 8 C0 2.25 0 2.25 0 0 Z " fill="#0176DB" transform="translate(20,213)"/>
<path d="M0 0 C3 1 3 1 4.6875 4.0625 C5.120625 5.031875 5.55375 6.00125 6 7 C5.01 7 4.02 7 3 7 C0 2.77777778 0 2.77777778 0 0 Z " fill="#026FD1" transform="translate(11,201)"/>
<path d="M0 0 C3.42054006 1.14018002 4.2426201 1.92458518 6 5 C5.578125 7.13671875 5.578125 7.13671875 5 9 C4.16396622 7.68921847 3.3312426 6.37632511 2.5 5.0625 C2.0359375 4.33160156 1.571875 3.60070312 1.09375 2.84765625 C0 1 0 1 0 0 Z " fill="#0075D8" transform="translate(512,112)"/>
<path d="M0 0 C2.97 0.99 5.94 1.98 9 3 C9 3.99 9 4.98 9 6 C8.34 6 7.68 6 7 6 C7 5.34 7 4.68 7 4 C5.35 4 3.7 4 2 4 C1.34 2.68 0.68 1.36 0 0 Z " fill="#0363B8" transform="translate(460,58)"/>
<path d="M0 0 C0 0.66 0 1.32 0 2 C-1.45792884 2.05399736 -2.91642712 2.09279177 -4.375 2.125 C-5.18710937 2.14820313 -5.99921875 2.17140625 -6.8359375 2.1953125 C-9 2 -9 2 -11 0 C-6.98195309 -0.84098656 -3.98196457 -1.05404945 0 0 Z " fill="#026DC2" transform="translate(648,42)"/>
<path d="M0 0 C3.36720387 1.39332574 4.9859524 2.9789286 7 6 C4 6 4 6 1.8125 4.125 C0 2 0 2 0 0 Z " fill="#0169C7" transform="translate(235,23)"/>
<path d="M0 0 C0.66 0.33 1.32 0.66 2 1 C-0.3125 3.5 -0.3125 3.5 -3 6 C-3.99 6 -4.98 6 -6 6 C-6 5.34 -6 4.68 -6 4 C-4.03852126 2.61061923 -2.03833424 1.2739589 0 0 Z " fill="#0174D8" transform="translate(122,13)"/>
<path d="M0 0 C0.66 0.33 1.32 0.66 2 1 C0.02 3.31 -1.96 5.62 -4 8 C-4.33 7.01 -4.66 6.02 -5 5 C-3.35 3.35 -1.7 1.7 0 0 Z " fill="#0084F8" transform="translate(28,96)"/>
</svg>
